<?xml version="1.0" encoding="UTF-8" standalone="no"?><!DOCTYPE svg PUBLIC "-//W3C//DTD SVG 1.1//EN" "http://www.w3.org/Graphics/SVG/1.1/DTD/svg11.dtd"><svg width="100%" height="100%" viewBox="0 0 1191 1191" version="1.1" xmlns="http://www.w3.org/2000/svg" xmlns:xlink="http://www.w3.org/1999/xlink" xml:space="preserve" xmlns:serif="http://www.serif.com/" style="fill-rule:evenodd;clip-rule:evenodd;stroke-linecap:round;stroke-linejoin:round;stroke-miterlimit:1.5;"><path d="M1324.333,25.751c109.042,50.576 192.012,145.663 230.658,264.341c38.646,118.678 29.803,251.227 -24.585,368.486c-100.231,216.098 -220.542,475.485 -320.773,691.583c-54.388,117.26 -149.865,209.626 -265.428,256.778c-115.562,47.152 -241.744,45.229 -350.786,-5.348c-232.266,-107.731 -521.675,-241.966 -753.94,-349.696c-109.042,-50.576 -192.012,-145.663 -230.658,-264.341c-38.646,-118.678 -29.803,-251.227 24.585,-368.486c100.242,-216.121 220.568,-475.542 320.806,-691.654c54.379,-117.241 149.841,-209.592 265.385,-256.736c115.544,-47.145 241.705,-45.221 350.729,5.347c232.277,107.736 521.719,241.986 754.007,349.727Z" style="fill:url(#_Linear1);"/><path d="M507.728,815.61c-16.367,-47.732 -53.863,-85.228 -101.595,-101.595c-79.66,-27.314 -193.658,-66.403 -193.658,-66.403c-12.527,-4.295 -12.527,-11.259 0,-15.555c0,0 113.449,-38.9 192.863,-66.13c47.732,-16.367 85.228,-53.863 101.595,-101.595c27.451,-80.059 66.847,-194.953 66.847,-194.953c4.295,-12.527 11.259,-12.527 15.555,0c-0,0 39.331,114.706 66.754,194.681c16.367,47.732 53.863,85.228 101.595,101.595c79.659,27.314 193.655,66.402 193.655,66.402c12.527,4.295 12.527,11.259 -0,15.555c0,0 -114.547,39.277 -194.451,66.675c-47.732,16.367 -85.228,53.863 -101.595,101.595c-27.177,79.258 -65.958,192.36 -65.958,192.36c-4.295,12.527 -11.259,12.527 -15.555,-0c0,0 -38.845,-113.289 -66.051,-192.632Z" style="fill:none;stroke:#fff;stroke-width:80px;"/><path d="M352.183,882.944c-3.746,-10.925 -12.328,-19.507 -23.253,-23.253c-8.859,-3.038 -17.8,-6.103 -17.8,-6.103c-1.633,-0.56 -1.633,-1.468 0,-2.028c-0,0 8.88,-3.045 17.696,-6.068c10.925,-3.746 19.507,-12.328 23.253,-23.253c3.062,-8.929 6.161,-17.969 6.161,-17.969c0.56,-1.633 1.468,-1.633 2.028,0c0,0 3.093,9.019 6.149,17.934c3.746,10.925 12.328,19.507 23.253,23.253c8.859,3.038 17.8,6.103 17.8,6.103c1.633,0.56 1.633,1.468 -0,2.028c0,0 -9.002,3.087 -17.903,6.139c-10.925,3.746 -19.507,12.328 -23.253,23.253c-3.014,8.789 -6.045,17.631 -6.045,17.631c-0.56,1.633 -1.468,1.633 -2.028,-0c-0,0 -3.039,-8.863 -6.058,-17.666Z" style="fill:none;stroke:#fff;stroke-width:30px;"/><path d="M814.081,447.558c-6.056,-17.66 -19.929,-31.534 -37.589,-37.589c-14.067,-4.823 -28.162,-9.656 -28.162,-9.656c-2.612,-0.896 -2.612,-2.348 0,-3.243c-0,0 13.998,-4.8 27.996,-9.6c17.66,-6.056 31.534,-19.929 37.589,-37.589c4.862,-14.179 9.749,-28.432 9.749,-28.432c0.896,-2.612 2.348,-2.612 3.243,0c0,0 4.876,14.22 9.73,28.375c6.056,17.66 19.929,31.534 37.589,37.589c14.066,4.823 28.161,9.656 28.161,9.656c2.612,0.896 2.612,2.348 -0,3.243c0,0 -14.192,4.866 -28.327,9.713c-17.66,6.056 -31.534,19.929 -37.589,37.589c-4.785,13.954 -9.564,27.891 -9.564,27.891c-0.896,2.612 -2.348,2.612 -3.243,-0c0,0 -4.79,-13.97 -9.583,-27.948Z" style="fill:none;stroke:#fff;stroke-width:30px;"/><defs><linearGradient id="_Linear1" x1="0" y1="0" x2="1" y2="0" gradientUnits="userSpaceOnUse" gradientTransform="matrix(1576.22688,731.092817,-730.91348,1575.840233,-206.207442,273.276558)"><stop offset="0" style="stop-color:#1c67ff;stop-opacity:1"/><stop offset="0.49" style="stop-color:#465cff;stop-opacity:1"/><stop offset="1" style="stop-color:#c03bff;stop-opacity:1"/></linearGradient></defs></svg>